# Blender 4.2.0
# www.blender.org
mtllib Testing level.mtl
o Cube
v 59.555931 0.133891 -59.555931
v 59.555931 -0.133891 -59.555931
v 59.555931 0.133891 59.555931
v 59.555931 -0.133891 59.555931
v -59.555931 0.133891 -59.555931
v -59.555931 -0.133891 -59.555931
v -59.555931 0.133891 59.555931
v -59.555931 -0.133891 59.555931
vn -0.0000 1.0000 -0.0000
vn -0.0000 -0.0000 1.0000
vn -1.0000 -0.0000 -0.0000
vn -0.0000 -1.0000 -0.0000
vn 1.0000 -0.0000 -0.0000
vn -0.0000 -0.0000 -1.0000
vt 0.625000 0.500000
vt 0.875000 0.500000
vt 0.875000 0.750000
vt 0.625000 0.750000
vt 0.375000 0.750000
vt 0.625000 1.000000
vt 0.375000 1.000000
vt 0.375000 0.000000
vt 0.625000 0.000000
vt 0.625000 0.250000
vt 0.375000 0.250000
vt 0.125000 0.500000
vt 0.375000 0.500000
vt 0.125000 0.750000
s 0
usemtl Material
f 1/1/1 5/2/1 7/3/1 3/4/1
f 4/5/2 3/4/2 7/6/2 8/7/2
f 8/8/3 7/9/3 5/10/3 6/11/3
f 6/12/4 2/13/4 4/5/4 8/14/4
f 2/13/5 1/1/5 3/4/5 4/5/5
f 6/11/6 5/10/6 1/1/6 2/13/6
o Cube.001
v -6.047105 0.074816 10.423191
v -6.047105 2.074816 10.423191
v -6.047105 0.074816 6.329733
v -6.047105 2.074816 6.329733
v -1.463095 0.074816 10.423191
v -1.463095 0.074816 6.329733
vn -1.0000 -0.0000 -0.0000
vn -0.0000 -0.0000 -1.0000
vn 0.3999 0.9166 -0.0000
vn -0.0000 -0.0000 1.0000
vn -0.0000 -1.0000 -0.0000
vt 0.375000 0.000000
vt 0.625000 0.000000
vt 0.625000 0.250000
vt 0.375000 0.250000
vt 0.875000 0.500000
vt 0.375000 0.500000
vt 0.625000 1.000000
vt 0.375000 0.750000
vt 0.375000 1.000000
vt 0.125000 0.500000
vt 0.125000 0.750000
s 0
usemtl Material.002
f 9/15/7 10/16/7 12/17/7 11/18/7
f 11/18/8 12/19/8 14/20/8
f 12/19/9 10/21/9 13/22/9 14/20/9
f 10/21/10 9/23/10 13/22/10
f 11/24/11 14/20/11 13/22/11 9/25/11
o Cube.002
v -10.036415 -0.546580 10.403116
v -10.036415 2.067759 10.403116
v -10.036415 -0.546580 -5.008616
v -10.036415 2.067759 -5.008616
v -6.041655 -0.546580 10.403116
v -6.041655 2.067759 10.403116
v -6.041655 -0.546580 -5.008616
v -6.041655 2.067759 -5.008616
v -10.112468 0.133774 10.987360
v -10.112468 8.892020 10.987360
v -10.004201 0.133774 10.389478
v -10.004201 8.892020 10.389478
v -6.102868 0.133774 10.987360
v -6.102868 8.892020 10.987360
v -6.102868 0.133774 10.389478
v -6.102868 8.892020 10.389478
v -10.403336 0.133774 10.389478
v -10.403336 0.133774 10.987360
v -10.403336 8.892020 10.987360
v -10.403336 8.892020 10.389478
v -10.004201 8.892020 -8.980715
v -10.004201 0.133774 -8.980715
v -10.403336 8.892020 -8.980715
v -10.403336 0.133774 -8.980715
v -10.112468 9.153728 10.987360
v -10.112468 9.153728 10.389478
v -10.403336 9.153728 10.987360
v -10.403336 9.153728 10.389478
v -10.112468 9.153728 -8.980715
v -10.403336 9.153728 -8.980715
v -6.104750 8.892020 10.987360
v -6.104750 8.892020 10.389478
v -6.104750 8.892020 -8.980715
v -6.104750 9.153728 10.987360
v -6.104750 9.153728 10.389478
v -6.104750 9.153728 -8.980715
v -10.036415 2.067759 -8.981719
v -10.036415 -0.546580 -8.981719
v -6.041655 -0.546580 -8.981719
v -6.041655 2.067759 -8.981719
v 5.906786 2.067759 -5.008616
v 5.906786 -0.546580 -5.008616
v 5.906786 2.067759 -8.981719
v 5.906786 -0.546580 -8.981719
v 10.206462 0.460943 -5.047863
v 10.206462 3.587291 -5.047863
v 10.206462 0.460943 -8.952135
v 10.206462 3.587291 -8.952135
v 12.206462 0.460943 -5.047863
v 12.206462 3.587291 -5.047863
v 12.206462 0.460943 -8.952135
v 12.206462 3.587291 -8.952135
v 18.828770 -0.296282 -0.907184
v 18.828770 6.703718 -0.907184
v 18.828770 -0.296282 -9.092815
v 18.828770 6.703718 -9.092815
v 25.828770 -0.296282 -0.907184
v 25.828770 6.703718 -0.907184
v 25.828770 -0.296282 -9.092815
v 25.828770 6.703718 -9.092815
v 27.723892 6.703718 -9.092815
v 27.723892 -0.296282 -9.092815
v 27.723892 -0.296282 -0.907184
v 27.723892 6.703718 -0.907184
v 25.828770 16.999519 -9.092815
v 25.828770 16.999519 -0.907184
v 27.723892 16.999519 -9.092815
v 27.723892 16.999519 -0.907184
v 25.828770 6.703718 10.720970
v 27.723892 6.703718 10.720970
v 25.828770 16.999519 10.720970
v 27.723892 16.999519 10.720970
v 25.828770 6.703718 17.957283
v 27.723892 6.703718 17.957283
v 25.828770 16.999519 17.957283
v 27.723892 16.999519 17.957283
v 25.828770 -0.438401 10.720970
v 27.723892 -0.438401 10.720970
v 25.828770 -0.438401 17.957283
v 27.723892 -0.438401 17.957283
v 19.266342 6.703718 10.720970
v 19.266342 6.703718 17.957283
v 19.266342 -0.438401 10.720970
v 19.266342 -0.438401 17.957283
v 16.387867 7.368332 35.859875
v 16.387867 9.368332 35.859875
v 16.387867 7.368332 26.689087
v 16.387867 9.368332 26.689087
v 25.558655 7.368332 35.859875
v 25.558655 9.368332 35.859875
v 25.558655 7.368332 26.689087
v 25.558655 9.368332 26.689087
v 18.346718 5.618318 33.901024
v 18.346718 6.745125 33.901024
v 18.346718 5.618318 28.647938
v 18.346718 6.745125 28.647938
v 23.599808 5.618318 33.901024
v 23.599808 6.745125 33.901024
v 23.599808 5.618318 28.647938
v 23.599808 6.745125 28.647938
vn -1.0000 -0.0000 -0.0000
vn -0.0000 -0.0000 1.0000
vn 1.0000 -0.0000 -0.0000
vn -0.0000 -1.0000 -0.0000
vn -0.0000 1.0000 -0.0000
vn -0.0000 -0.0000 -1.0000
vt 0.375000 0.000000
vt 0.625000 0.000000
vt 0.625000 0.250000
vt 0.375000 0.250000
vt 0.625000 0.500000
vt 0.375000 0.500000
vt 0.625000 0.750000
vt 0.375000 0.750000
vt 0.625000 1.000000
vt 0.375000 1.000000
vt 0.125000 0.500000
vt 0.125000 0.750000
vt 0.875000 0.500000
vt 0.875000 0.750000
s 0
usemtl Material.002
f 15/26/12 16/27/12 18/28/12 17/29/12
f 22/30/13 21/31/13 56/31/13 55/30/13
f 21/31/14 22/30/14 20/32/14 19/33/14
f 19/33/13 20/32/13 16/34/13 15/35/13
f 17/36/15 21/31/15 19/33/15 15/37/15
f 22/30/16 18/38/16 16/39/16 20/32/16
f 33/34/13 24/34/13 39/34/13 41/34/13
f 25/29/17 26/28/17 30/30/17 29/31/17
f 29/31/14 30/30/14 28/32/14 27/33/14
f 27/33/13 28/32/13 24/34/13 23/35/13
f 25/36/15 29/31/15 27/33/15 23/37/15
f 30/30/16 26/38/16 24/39/16 28/32/16
f 32/26/12 33/27/12 34/28/12 31/29/12
f 25/36/15 23/37/15 32/37/15 31/36/15
f 31/29/12 34/28/12 37/28/12 38/29/12
f 23/35/13 24/34/13 33/34/13 32/35/13
f 35/28/17 36/29/17 38/29/17 37/28/17
f 34/28/12 33/27/12 41/27/12 42/28/12
f 26/28/14 25/29/14 36/29/14 35/28/14
f 25/36/15 31/36/15 38/36/15 36/36/15
f 39/39/16 40/38/16 42/38/16 41/39/16
f 42/38/16 40/38/16 43/38/16 44/38/16
f 43/38/16 40/38/16 49/38/16 50/38/16
f 37/28/12 34/28/12 42/28/12 44/28/12
f 39/34/13 24/34/13 45/34/13 48/34/13
f 35/28/17 37/28/17 44/28/17 43/28/17
f 46/28/14 47/28/14 50/28/14 49/28/14
f 45/39/14 46/38/14 49/38/14 48/39/14
f 40/38/16 39/39/16 48/39/16 49/38/16
f 35/28/17 43/28/17 50/28/17 47/28/17
f 26/28/15 35/28/15 47/28/15 46/28/15
f 24/39/15 26/38/15 46/38/15 45/39/15
f 52/29/17 51/28/17 54/30/17 53/31/17
f 21/31/15 17/36/15 52/36/15 53/31/15
f 18/38/16 22/30/16 54/30/16 51/38/16
f 17/29/12 18/28/12 51/28/12 52/29/12
f 55/30/14 56/31/14 58/31/14 57/30/14
f 21/31/15 53/31/15 58/31/15 56/31/15
f 54/30/16 22/30/16 55/30/16 57/30/16
f 53/31/17 54/30/17 57/30/17 58/31/17
f 59/26/12 60/27/12 62/28/12 61/29/12
f 61/29/17 62/28/17 66/30/17 65/31/17
f 65/31/14 66/30/14 64/32/14 63/33/14
f 63/33/13 64/32/13 60/34/13 59/35/13
f 61/36/15 65/31/15 63/33/15 59/37/15
f 66/30/16 62/38/16 60/39/16 64/32/16
f 67/26/12 68/27/12 70/28/12 69/29/12
f 69/29/17 70/28/17 74/30/17 73/31/17
f 74/30/12 72/32/12 80/32/12 79/30/12
f 71/33/13 72/32/13 68/34/13 67/35/13
f 69/36/15 73/31/15 71/33/15 67/37/15
f 74/30/16 70/38/16 68/39/16 72/32/16
f 76/31/14 75/30/14 78/32/14 77/33/14
f 73/31/17 74/30/17 75/30/17 76/31/17
f 72/32/13 71/33/13 77/33/13 78/32/13
f 71/33/15 73/31/15 76/31/15 77/33/15
f 79/30/16 80/32/16 82/32/16 81/30/16
f 75/30/17 74/30/17 79/30/17 81/30/17
f 80/32/12 72/32/12 83/32/12 85/32/12
f 78/32/14 75/30/14 81/30/14 82/32/14
f 85/32/12 83/32/12 87/32/12 89/32/12
f 82/32/16 80/32/16 85/32/16 86/32/16
f 72/32/15 78/32/15 84/32/15 83/32/15
f 78/32/14 82/32/14 86/32/14 84/32/14
f 87/32/13 88/32/13 90/32/13 89/32/13
f 83/32/17 84/32/17 92/32/17 91/32/17
f 84/32/14 86/32/14 90/32/14 88/32/14
f 86/32/16 85/32/16 89/32/16 90/32/16
f 91/32/15 92/32/15 94/32/15 93/32/15
f 84/32/14 88/32/14 94/32/14 92/32/14
f 91/32/15 93/32/15 98/32/15 97/32/15
f 88/32/13 87/32/13 93/32/13 94/32/13
f 96/32/12 95/32/12 97/32/12 98/32/12
f 87/32/16 83/32/16 95/32/16 96/32/16
f 93/32/13 87/32/13 96/32/13 98/32/13
f 83/32/17 91/32/17 97/32/17 95/32/17
f 99/26/12 100/27/12 102/28/12 101/29/12
f 101/29/17 102/28/17 106/30/17 105/31/17
f 105/31/14 106/30/14 104/32/14 103/33/14
f 103/33/13 104/32/13 100/34/13 99/35/13
f 101/36/15 105/31/15 103/33/15 99/37/15
f 106/30/16 102/38/16 100/39/16 104/32/16
f 107/26/12 108/27/12 110/28/12 109/29/12
f 109/29/17 110/28/17 114/30/17 113/31/17
f 113/31/14 114/30/14 112/32/14 111/33/14
f 111/33/13 112/32/13 108/34/13 107/35/13
f 109/36/15 113/31/15 111/33/15 107/37/15
f 114/30/16 110/38/16 108/39/16 112/32/16
o Cube.003
v 12.372561 -3.679458 -33.544880
v 12.372561 -2.147369 -32.259304
v 12.372561 16.504292 -59.930237
v 12.372561 18.036381 -58.644665
v 20.368429 -3.679458 -33.544880
v 20.368429 -2.147369 -32.259304
v 20.368429 16.504292 -59.930237
v 20.368429 18.036381 -58.644665
vn -1.0000 -0.0000 -0.0000
vn -0.0000 0.6428 -0.7660
vn 1.0000 -0.0000 -0.0000
vn -0.0000 -0.6428 0.7660
vn -0.0000 -0.7943 -0.6076
vn -0.0000 0.7943 0.6076
vt 0.375000 0.000000
vt 0.625000 0.000000
vt 0.625000 0.250000
vt 0.375000 0.250000
vt 0.625000 0.500000
vt 0.375000 0.500000
vt 0.625000 0.750000
vt 0.375000 0.750000
vt 0.625000 1.000000
vt 0.375000 1.000000
vt 0.125000 0.500000
vt 0.125000 0.750000
vt 0.875000 0.500000
vt 0.875000 0.750000
s 0
f 115/40/18 116/41/18 118/42/18 117/43/18
f 117/43/19 118/42/19 122/44/19 121/45/19
f 121/45/20 122/44/20 120/46/20 119/47/20
f 119/47/21 120/46/21 116/48/21 115/49/21
f 117/50/22 121/45/22 119/47/22 115/51/22
f 122/44/23 118/52/23 116/53/23 120/46/23
o Cube.004
v -5.045335 -3.629395 -33.276031
v -5.045335 -1.878519 -32.309368
v -5.045335 11.098663 -63.052788
v -5.045335 12.849539 -62.086124
v 2.950532 -3.629395 -33.276031
v 2.950532 -1.878519 -32.309368
v 2.950532 11.098663 -63.052788
v 2.950532 12.849539 -62.086124
vn -1.0000 -0.0000 -0.0000
vn -0.0000 0.4833 -0.8754
vn 1.0000 -0.0000 -0.0000
vn -0.0000 -0.4833 0.8754
vn -0.0000 -0.8963 -0.4433
vn -0.0000 0.8963 0.4433
vt 0.375000 0.000000
vt 0.625000 0.000000
vt 0.625000 0.250000
vt 0.375000 0.250000
vt 0.625000 0.500000
vt 0.375000 0.500000
vt 0.625000 0.750000
vt 0.375000 0.750000
vt 0.625000 1.000000
vt 0.375000 1.000000
vt 0.125000 0.500000
vt 0.125000 0.750000
vt 0.875000 0.500000
vt 0.875000 0.750000
s 0
f 123/54/24 124/55/24 126/56/24 125/57/24
f 125/57/25 126/56/25 130/58/25 129/59/25
f 129/59/26 130/58/26 128/60/26 127/61/26
f 127/61/27 128/60/27 124/62/27 123/63/27
f 125/64/28 129/59/28 127/61/28 123/65/28
f 130/58/29 126/66/29 124/67/29 128/60/29
o Cube.005
v 27.696814 -3.652537 -33.968674
v 27.696814 -2.571162 -32.286224
v 27.696814 23.454252 -53.172653
v 27.696814 24.535629 -51.490208
v 35.692680 -3.652537 -33.968674
v 35.692680 -2.571162 -32.286224
v 35.692680 23.454252 -53.172653
v 35.692680 24.535629 -51.490208
vn -1.0000 -0.0000 -0.0000
vn -0.0000 0.8412 -0.5407
vn 1.0000 -0.0000 -0.0000
vn -0.0000 -0.8412 0.5407
vn -0.0000 -0.5781 -0.8160
vn -0.0000 0.5781 0.8160
vt 0.375000 0.000000
vt 0.625000 0.000000
vt 0.625000 0.250000
vt 0.375000 0.250000
vt 0.625000 0.500000
vt 0.375000 0.500000
vt 0.625000 0.750000
vt 0.375000 0.750000
vt 0.625000 1.000000
vt 0.375000 1.000000
vt 0.125000 0.500000
vt 0.125000 0.750000
vt 0.875000 0.500000
vt 0.875000 0.750000
s 0
f 131/68/30 132/69/30 134/70/30 133/71/30
f 133/71/31 134/70/31 138/72/31 137/73/31
f 137/73/32 138/72/32 136/74/32 135/75/32
f 135/75/33 136/74/33 132/76/33 131/77/33
f 133/78/34 137/73/34 135/75/34 131/79/34
f 138/72/35 134/80/35 132/81/35 136/74/35
